<svg width="26" height="36" viewBox="0 0 26 36" fill="none" xmlns="http://www.w3.org/2000/svg">
<path d="M0 13C0 12.4477 0.447715 12 1 12H25C25.5523 12 26 12.4477 26 13V31C26 33.7614 23.7614 36 21 36H5C2.23858 36 0 33.7614 0 31V13Z" fill="#D9D9D9"/>
<path fill-rule="evenodd" clip-rule="evenodd" d="M13 21C17.9706 21 22 16.9706 22 12C22 7.02944 17.9706 3 13 3C8.02944 3 4 7.02944 4 12C4 16.9706 8.02944 21 13 21ZM13 24C19.6274 24 25 18.6274 25 12C25 5.37258 19.6274 0 13 0C6.37258 0 1 5.37258 1 12C1 18.6274 6.37258 24 13 24Z" fill="#D9D9D9"/>
<rect x="10" y="18" width="6" height="6" rx="1" fill="#21242B"/>
<rect x="11.5" y="21" width="3" height="10.5" rx="1" fill="#21242B"/>
</svg>
