<svg width="262" height="592" viewBox="0 0 262 592" fill="none" xmlns="http://www.w3.org/2000/svg">
<path d="M205.877 1.26295H56.1235C25.6796 1.26295 1 22.1791 1 47.9805V544.545C1 570.347 25.6796 591.263 56.1235 591.263H205.877C236.32 591.263 261 570.347 261 544.545V47.9805C261 22.1791 236.32 1.26295 205.877 1.26295Z" fill="url(#paint0_linear_9_369)" stroke="black"/>
<path d="M212.615 12.5355H49.3846C28.6732 12.5355 11.8833 28.6568 11.8833 48.5433V541.084C11.8833 560.971 28.6732 577.092 49.3846 577.092H212.615C233.327 577.092 250.117 560.971 250.117 541.084V48.5433C250.117 28.6568 233.327 12.5355 212.615 12.5355Z" fill="#555753" stroke="black"/>
<path d="M58.0306 29.1094H85.3942C94.2782 29.1094 100.161 47.7376 112.758 47.7376C124.919 47.7376 137.464 47.7376 149.242 47.7376C161.021 47.7376 167.603 29.1094 176.606 29.1094H203.969C220.139 29.1094 233.157 39.3308 233.157 52.5917V379.095C233.157 392.356 220.139 403.032 203.969 403.032H58.0306C41.8606 403.032 28.8429 392.356 28.8429 379.095V52.5917C28.8429 39.3308 41.8606 29.1094 58.0306 29.1094Z" stroke="url(#paint1_linear_9_369)" stroke-width="2"/>
<path d="M201.266 310.676H60.7347C45.2121 310.676 32.6285 319.018 32.6285 329.309V381.998C32.6285 392.289 45.2121 400.632 60.7347 400.632H201.266C216.788 400.632 229.372 392.289 229.372 381.998V329.309C229.372 319.018 216.788 310.676 201.266 310.676Z" fill="#EEEEEC" stroke="black"/>
<path d="M197.842 318.065H64.1584C50.9952 318.065 40.3242 328.311 40.3242 340.95V370.357C40.3242 382.996 50.9952 393.242 64.1584 393.242H197.842C211.005 393.242 221.676 382.996 221.676 370.357V340.95C221.676 328.311 211.005 318.065 197.842 318.065Z" stroke="#C2C2BD"/>
<path d="M11.2825 355.654H250.718" stroke="black"/>
<path d="M158.246 320.314H103.754C94.5938 320.314 87.1677 327.444 87.1677 336.24V375.068C87.1677 383.863 94.5938 390.994 103.754 390.994H158.246C167.406 390.994 174.832 383.863 174.832 375.068V336.24C174.832 327.444 167.406 320.314 158.246 320.314Z" fill="url(#paint2_linear_9_369)" stroke="black"/>
<path d="M157.242 332.522H104.758C102.62 332.522 100.886 334.186 100.886 336.24V375.068C100.886 377.121 102.62 378.785 104.758 378.785H157.242C159.38 378.785 161.114 377.121 161.114 375.068V336.24C161.114 334.186 159.38 332.522 157.242 332.522Z" fill="#EEEEEC" stroke="black"/>
<path d="M147.68 17.9756H114.32C109.616 17.9756 105.803 21.6371 105.803 26.1539C105.803 30.6706 109.616 34.3321 114.32 34.3321H147.68C152.384 34.3321 156.198 30.6706 156.198 26.1539C156.198 21.6371 152.384 17.9756 147.68 17.9756Z" fill="black" stroke="#EEEEEC"/>
<path d="M33.5344 439.995C60.7599 442.413 106.421 446.197 131 446.197C155.574 446.197 201.237 442.414 228.466 439.995" stroke="url(#paint3_linear_9_369)" stroke-width="4" stroke-linecap="round"/>
<path d="M11.2825 438.019C11.2825 438.019 95.0848 446.197 131 446.197C166.915 446.197 250.718 438.019 250.718 438.019" stroke="black"/>
<path d="M33.5344 486.714C60.7599 489.132 106.421 492.916 131 492.916C155.574 492.916 201.237 489.132 228.466 486.714" stroke="url(#paint4_linear_9_369)" stroke-width="4" stroke-linecap="round"/>
<path d="M11.2825 484.737C11.2825 484.737 95.0848 492.916 131 492.916C166.915 492.916 250.718 484.737 250.718 484.737" stroke="black"/>
<path d="M33.5344 531.24C60.7599 533.658 106.421 537.441 131 537.441C155.574 537.441 201.237 533.658 228.466 531.24" stroke="url(#paint5_linear_9_369)" stroke-width="4" stroke-linecap="round"/>
<path d="M11.2825 529.263C11.2825 529.263 95.0848 537.442 131 537.442C166.915 537.442 250.718 529.263 250.718 529.263" stroke="black"/>
<path d="M87.7769 402.071V577.32" stroke="black"/>
<path d="M174.223 402.071V577.321" stroke="black"/>
<path d="M48.3546 339.409H73.784" stroke="#729FCF" stroke-width="2"/>
<path d="M48.3546 372.5C48.3546 372.5 57.2549 368.003 61.0693 368.003C64.8837 368.003 73.784 372.5 73.784 372.5" stroke="#4E9A06" stroke-width="2"/>
<path d="M188.216 339.409H213.646" stroke="#729FCF" stroke-width="2"/>
<path d="M188.216 372.5C188.216 372.5 197.116 368.003 200.931 368.003C204.745 368.003 213.646 372.5 213.646 372.5" stroke="#A40000" stroke-width="2"/>
<path d="M198.461 374.749H203.402" stroke="#A40000" stroke-width="2"/>
<path d="M110.235 429.594H115.336V431.704H106.913V429.594L111.144 426.009C111.521 425.681 111.801 425.36 111.982 425.047C112.163 424.734 112.254 424.409 112.254 424.071C112.254 423.549 112.07 423.129 111.703 422.811C111.34 422.493 110.856 422.334 110.251 422.334C109.785 422.334 109.275 422.431 108.721 422.625C108.168 422.813 107.575 423.097 106.944 423.474V421.029C107.616 420.816 108.282 420.654 108.939 420.545C109.596 420.431 110.24 420.373 110.872 420.373C112.259 420.373 113.335 420.667 114.101 421.253C114.873 421.839 115.258 422.657 115.258 423.705C115.258 424.312 115.095 424.878 114.769 425.405C114.443 425.927 113.757 426.627 112.712 427.507L110.235 429.594ZM127.47 427.947C126.89 427.947 126.453 428.041 126.158 428.23C125.868 428.419 125.723 428.697 125.723 429.065C125.723 429.403 125.84 429.669 126.072 429.862C126.311 430.051 126.639 430.146 127.058 430.146C127.581 430.146 128.021 429.967 128.378 429.609C128.735 429.246 128.914 428.794 128.914 428.252V427.947H127.47ZM131.716 426.94V431.704H128.914V430.466C128.541 430.973 128.122 431.343 127.656 431.577C127.19 431.806 126.624 431.92 125.956 431.92C125.055 431.92 124.323 431.669 123.759 431.167C123.2 430.66 122.921 430.004 122.921 429.199C122.921 428.22 123.27 427.502 123.969 427.045C124.672 426.588 125.775 426.359 127.276 426.359H128.914V426.15C128.914 425.728 128.74 425.42 128.394 425.226C128.047 425.027 127.506 424.928 126.771 424.928C126.176 424.928 125.622 424.985 125.11 425.099C124.597 425.214 124.121 425.385 123.681 425.614V423.579C124.277 423.44 124.874 423.335 125.475 423.266C126.075 423.191 126.675 423.154 127.276 423.154C128.844 423.154 129.975 423.452 130.668 424.048C131.367 424.64 131.716 425.604 131.716 426.94ZM138.944 429.982C139.539 429.982 139.992 429.773 140.303 429.356C140.618 428.938 140.776 428.332 140.776 427.537C140.776 426.742 140.618 426.135 140.303 425.718C139.992 425.301 139.539 425.092 138.944 425.092C138.349 425.092 137.891 425.303 137.57 425.725C137.254 426.143 137.096 426.747 137.096 427.537C137.096 428.327 137.254 428.933 137.57 429.356C137.891 429.773 138.349 429.982 138.944 429.982ZM137.096 424.578C137.479 424.091 137.904 423.733 138.37 423.504C138.835 423.271 139.371 423.154 139.977 423.154C141.048 423.154 141.928 423.564 142.616 424.384C143.304 425.199 143.649 426.25 143.649 427.537C143.649 428.824 143.304 429.877 142.616 430.697C141.928 431.512 141.048 431.92 139.977 431.92C139.371 431.92 138.835 431.806 138.37 431.577C137.904 431.343 137.479 430.983 137.096 430.496V431.704H134.317V420.105H137.096V424.578ZM152.739 423.616V425.793C152.362 425.544 151.981 425.36 151.598 425.241C151.22 425.122 150.827 425.062 150.418 425.062C149.642 425.062 149.036 425.281 148.602 425.718C148.172 426.15 147.957 426.757 147.957 427.537C147.957 428.317 148.172 428.926 148.602 429.363C149.036 429.795 149.642 430.012 150.418 430.012C150.853 430.012 151.264 429.949 151.653 429.825C152.046 429.701 152.408 429.517 152.739 429.274V431.458C152.305 431.612 151.862 431.726 151.412 431.801C150.967 431.88 150.519 431.92 150.069 431.92C148.501 431.92 147.274 431.535 146.389 430.764C145.504 429.989 145.061 428.913 145.061 427.537C145.061 426.16 145.504 425.087 146.389 424.317C147.274 423.541 148.501 423.154 150.069 423.154C150.524 423.154 150.972 423.194 151.412 423.273C151.857 423.348 152.299 423.462 152.739 423.616Z" fill="#EEEEEC"/>
<path d="M24.6581 422.418H27.2977V415.225L24.5883 415.762V413.809L27.2821 413.272H30.1235V422.418H32.763V424.401H24.6581V422.418ZM44.8505 417.759C44.2346 417.759 43.7636 417.973 43.4376 418.4C43.1167 418.823 42.9562 419.434 42.9562 420.234C42.9562 421.034 43.1167 421.648 43.4376 422.075C43.7636 422.498 44.2346 422.709 44.8505 422.709C45.456 422.709 45.9192 422.498 46.2401 422.075C46.561 421.648 46.7214 421.034 46.7214 420.234C46.7214 419.434 46.561 418.823 46.2401 418.4C45.9192 417.973 45.456 417.759 44.8505 417.759ZM44.8505 415.851C46.3462 415.851 47.5133 416.239 48.3517 417.014C49.1954 417.789 49.6172 418.862 49.6172 420.234C49.6172 421.606 49.1954 422.679 48.3517 423.454C47.5133 424.229 46.3462 424.617 44.8505 424.617C43.3496 424.617 42.1748 424.229 41.3259 423.454C40.4823 422.679 40.0605 421.606 40.0605 420.234C40.0605 418.862 40.4823 417.789 41.3259 417.014C42.1748 416.239 43.3496 415.851 44.8505 415.851ZM55.7812 417.759C55.1653 417.759 54.6943 417.973 54.3683 418.4C54.0474 418.823 53.887 419.434 53.887 420.234C53.887 421.034 54.0474 421.648 54.3683 422.075C54.6943 422.498 55.1653 422.709 55.7812 422.709C56.3868 422.709 56.85 422.498 57.1709 422.075C57.4917 421.648 57.6522 421.034 57.6522 420.234C57.6522 419.434 57.4917 418.823 57.1709 418.4C56.85 417.973 56.3868 417.759 55.7812 417.759ZM55.7812 415.851C57.2769 415.851 58.444 416.239 59.2825 417.014C60.1261 417.789 60.5479 418.862 60.5479 420.234C60.5479 421.606 60.1261 422.679 59.2825 423.454C58.444 424.229 57.2769 424.617 55.7812 424.617C54.2803 424.617 53.1055 424.229 52.2567 423.454C51.4131 422.679 50.9913 421.606 50.9913 420.234C50.9913 418.862 51.4131 417.789 52.2567 417.014C53.1055 416.239 54.2803 415.851 55.7812 415.851Z" fill="#EEEEEC"/>
<path d="M200.241 417.51V413.037H203.036V424.636H200.241V423.428C199.858 423.92 199.436 424.28 198.976 424.509C198.515 424.738 197.982 424.852 197.377 424.852C196.305 424.852 195.425 424.444 194.737 423.629C194.049 422.809 193.705 421.756 193.705 420.469C193.705 419.182 194.049 418.131 194.737 417.316C195.425 416.496 196.305 416.086 197.377 416.086C197.977 416.086 198.507 416.203 198.968 416.436C199.434 416.665 199.858 417.023 200.241 417.51ZM198.409 422.914C199.004 422.914 199.457 422.705 199.768 422.288C200.083 421.87 200.241 421.264 200.241 420.469C200.241 419.674 200.083 419.067 199.768 418.65C199.457 418.233 199.004 418.024 198.409 418.024C197.819 418.024 197.366 418.233 197.051 418.65C196.74 419.067 196.585 419.674 196.585 420.469C196.585 421.264 196.74 421.87 197.051 422.288C197.366 422.705 197.819 422.914 198.409 422.914ZM214.402 420.439V421.199H207.904C207.971 421.826 208.206 422.295 208.61 422.608C209.014 422.921 209.578 423.078 210.303 423.078C210.887 423.078 211.485 422.996 212.096 422.832C212.712 422.663 213.343 422.409 213.99 422.071V424.129C213.333 424.367 212.676 424.546 212.018 424.666C211.361 424.79 210.704 424.852 210.046 424.852C208.473 424.852 207.249 424.469 206.374 423.704C205.505 422.934 205.07 421.855 205.07 420.469C205.07 419.107 205.497 418.036 206.351 417.256C207.21 416.476 208.39 416.086 209.891 416.086C211.257 416.086 212.349 416.481 213.167 417.271C213.99 418.061 214.402 419.117 214.402 420.439ZM211.545 419.552C211.545 419.045 211.389 418.638 211.079 418.33C210.773 418.016 210.372 417.86 209.876 417.86C209.337 417.86 208.9 418.007 208.564 418.3C208.227 418.588 208.018 419.005 207.935 419.552H211.545ZM222.219 413.037V414.789H220.682C220.289 414.789 220.014 414.858 219.859 414.998C219.704 415.132 219.626 415.368 219.626 415.706V416.287H222.002V418.195H219.626V424.636H216.847V418.195H215.465V416.287H216.847V415.706C216.847 414.796 217.111 414.125 217.639 413.693C218.167 413.256 218.984 413.037 220.092 413.037H222.219ZM235.021 418.635C235.802 418.829 236.395 419.167 236.799 419.649C237.208 420.126 237.412 420.735 237.412 421.475C237.412 422.578 236.972 423.418 236.092 423.995C235.212 424.566 233.929 424.852 232.242 424.852C231.646 424.852 231.049 424.805 230.448 424.71C229.853 424.621 229.263 424.484 228.678 424.3V422.086C229.237 422.355 229.791 422.558 230.34 422.698C230.893 422.832 231.437 422.899 231.97 422.899C232.762 422.899 233.367 422.767 233.787 422.504C234.211 422.24 234.423 421.863 234.423 421.371C234.423 420.864 234.206 420.481 233.771 420.223C233.341 419.959 232.705 419.828 231.861 419.828H230.666V417.979H231.923C232.674 417.979 233.233 417.867 233.6 417.644C233.968 417.415 234.151 417.07 234.151 416.608C234.151 416.18 233.973 415.85 233.616 415.616C233.259 415.383 232.754 415.266 232.102 415.266C231.621 415.266 231.134 415.318 230.642 415.422C230.151 415.527 229.662 415.681 229.175 415.885V413.782C229.765 413.623 230.35 413.504 230.93 413.425C231.509 413.345 232.079 413.305 232.638 413.305C234.144 413.305 235.269 413.544 236.015 414.021C236.765 414.493 237.14 415.206 237.14 416.16C237.14 416.811 236.962 417.346 236.605 417.763C236.247 418.175 235.72 418.466 235.021 418.635Z" fill="#EEEEEC"/>
<path d="M112.521 463.632H119.951V465.742H114.905V467.464C115.132 467.404 115.36 467.359 115.588 467.33C115.821 467.295 116.061 467.277 116.31 467.277C117.723 467.277 118.823 467.618 119.609 468.299C120.396 468.974 120.789 469.919 120.789 471.131C120.789 472.334 120.36 473.275 119.501 473.956C118.647 474.637 117.459 474.977 115.937 474.977C115.28 474.977 114.628 474.915 113.981 474.791C113.339 474.672 112.7 474.488 112.063 474.239V471.981C112.695 472.329 113.293 472.59 113.857 472.764C114.426 472.938 114.962 473.024 115.464 473.024C116.188 473.024 116.758 472.855 117.172 472.518C117.591 472.175 117.8 471.713 117.8 471.131C117.8 470.545 117.591 470.083 117.172 469.745C116.758 469.407 116.188 469.238 115.464 469.238C115.034 469.238 114.576 469.292 114.09 469.402C113.603 469.506 113.08 469.67 112.521 469.894V463.632ZM128.754 466.413H131.534V474.612C131.534 475.73 131.254 476.583 130.695 477.169C130.136 477.76 129.326 478.056 128.265 478.056H126.891V476.304H127.373C127.901 476.304 128.263 476.19 128.459 475.961C128.656 475.733 128.754 475.283 128.754 474.612V466.413ZM128.754 463.163H131.534V465.339H128.754V463.163ZM134.22 463.163H136.999V469.476L140.198 466.413H143.427L139.181 470.244L143.761 474.761H140.392L136.999 471.28V474.761H134.22V463.163ZM144.809 463.163H147.588V474.761H144.809V463.163Z" fill="#EEEEEC"/>
<path d="M29.7276 458.927L26.4515 463.586H29.7276V458.927ZM29.2307 456.564H32.5534V463.586H34.207V465.666H32.5534V467.693H29.7276V465.666H24.5883V463.206L29.2307 456.564ZM47.7074 466.277C47.3244 466.764 46.9026 467.122 46.442 467.35C45.9813 467.579 45.4483 467.693 44.8427 467.693C43.7817 467.693 42.9045 467.293 42.211 466.493C41.5174 465.688 41.1707 464.664 41.1707 463.422C41.1707 462.175 41.5174 461.154 42.211 460.358C42.9045 459.558 43.7817 459.158 44.8427 459.158C45.4483 459.158 45.9813 459.273 46.442 459.501C46.9026 459.73 47.3244 460.09 47.7074 460.582V459.345H50.5022V466.851C50.5022 468.193 50.0597 469.216 49.1746 469.922C48.2948 470.633 47.0164 470.988 45.3396 470.988C44.7961 470.988 44.2708 470.948 43.7636 470.869C43.2564 470.789 42.7466 470.667 42.2343 470.503V468.424C42.7207 468.692 43.1969 468.891 43.6627 469.02C44.1285 469.154 44.5969 469.221 45.0679 469.221C45.9788 469.221 46.6464 469.03 47.0708 468.647C47.4952 468.265 47.7074 467.666 47.7074 466.851V466.277ZM45.8752 461.081C45.3007 461.081 44.8531 461.285 44.5322 461.693C44.2113 462.1 44.0509 462.677 44.0509 463.422C44.0509 464.187 44.2061 464.769 44.5167 465.166C44.8272 465.559 45.2801 465.755 45.8752 465.755C46.4549 465.755 46.9052 465.551 47.2261 465.144C47.5469 464.736 47.7074 464.162 47.7074 463.422C47.7074 462.677 47.5469 462.1 47.2261 461.693C46.9052 461.285 46.4549 461.081 45.8752 461.081ZM61.9298 462.61V467.693H59.135V466.866V463.817C59.1349 463.087 59.1168 462.585 59.0806 462.311C59.0496 462.038 58.9926 461.837 58.9098 461.708C58.8011 461.534 58.6536 461.399 58.4673 461.305C58.281 461.206 58.0688 461.156 57.8307 461.156C57.2511 461.156 56.7956 461.372 56.4644 461.804C56.1332 462.232 55.9675 462.826 55.9675 463.586V467.693H53.1883V456.095H55.9675V460.567C56.3868 460.08 56.8318 459.722 57.3028 459.494C57.7738 459.26 58.2939 459.143 58.8633 459.143C59.8673 459.143 60.6281 459.439 61.1457 460.03C61.6684 460.622 61.9298 461.481 61.9298 462.61ZM64.5227 459.345H67.302V467.693H64.5227V459.345ZM64.5227 456.095H67.302V458.271H64.5227V456.095Z" fill="#EEEEEC"/>
<path d="M192.222 462.129C192.574 461.612 192.99 461.219 193.472 460.951C193.958 460.678 194.491 460.541 195.071 460.541C196.07 460.541 196.83 460.837 197.353 461.428C197.876 462.019 198.137 462.879 198.137 464.007V469.091H195.343V464.738C195.348 464.673 195.35 464.606 195.35 464.536C195.355 464.467 195.358 464.367 195.358 464.238C195.358 463.647 195.267 463.22 195.086 462.956C194.905 462.688 194.613 462.554 194.209 462.554C193.681 462.554 193.272 462.762 192.982 463.18C192.698 463.597 192.55 464.201 192.54 464.991V469.091H189.745V464.738C189.745 463.813 189.662 463.22 189.497 462.956C189.331 462.688 189.036 462.554 188.612 462.554C188.079 462.554 187.667 462.765 187.377 463.187C187.088 463.605 186.943 464.203 186.943 464.984V469.091H184.148V460.742H186.943V461.965C187.284 461.493 187.675 461.137 188.115 460.899C188.56 460.66 189.049 460.541 189.582 460.541C190.182 460.541 190.713 460.68 191.174 460.958C191.634 461.237 191.984 461.627 192.222 462.129ZM209.487 464.007V469.091H206.692V468.263V465.2C206.692 464.479 206.674 463.982 206.638 463.709C206.607 463.436 206.55 463.234 206.467 463.105C206.359 462.931 206.211 462.797 206.025 462.703C205.838 462.603 205.626 462.554 205.388 462.554C204.809 462.554 204.353 462.77 204.022 463.202C203.691 463.63 203.525 464.223 203.525 464.984V469.091H200.746V460.742H203.525V461.965C203.944 461.478 204.389 461.12 204.86 460.891C205.331 460.658 205.851 460.541 206.421 460.541C207.425 460.541 208.186 460.837 208.703 461.428C209.226 462.019 209.487 462.879 209.487 464.007ZM216.218 462.449C215.602 462.449 215.131 462.663 214.805 463.09C214.484 463.513 214.324 464.124 214.324 464.924C214.324 465.724 214.484 466.338 214.805 466.765C215.131 467.188 215.602 467.399 216.218 467.399C216.824 467.399 217.287 467.188 217.608 466.765C217.929 466.338 218.089 465.724 218.089 464.924C218.089 464.124 217.929 463.513 217.608 463.09C217.287 462.663 216.824 462.449 216.218 462.449ZM216.218 460.541C217.714 460.541 218.881 460.929 219.719 461.704C220.563 462.479 220.985 463.552 220.985 464.924C220.985 466.296 220.563 467.369 219.719 468.144C218.881 468.919 217.714 469.307 216.218 469.307C214.717 469.307 213.542 468.919 212.694 468.144C211.85 467.369 211.428 466.296 211.428 464.924C211.428 463.552 211.85 462.479 212.694 461.704C213.542 460.929 214.717 460.541 216.218 460.541ZM232.956 463.597C232.433 463.597 232.04 463.761 231.776 464.089C231.517 464.412 231.388 464.899 231.388 465.55C231.388 466.201 231.517 466.691 231.776 467.019C232.04 467.342 232.433 467.503 232.956 467.503C233.484 467.503 233.877 467.342 234.136 467.019C234.4 466.691 234.532 466.201 234.532 465.55C234.532 464.899 234.4 464.412 234.136 464.089C233.877 463.761 233.484 463.597 232.956 463.597ZM236.651 458.253V460.31C236.159 460.086 235.696 459.922 235.261 459.818C234.827 459.709 234.402 459.654 233.988 459.654C233.098 459.654 232.405 459.893 231.908 460.37C231.411 460.842 231.121 461.545 231.038 462.479C231.38 462.236 231.75 462.054 232.148 461.935C232.547 461.811 232.982 461.749 233.453 461.749C234.638 461.749 235.593 462.082 236.317 462.747C237.047 463.413 237.412 464.285 237.412 465.364C237.412 466.557 237.006 467.513 236.193 468.234C235.38 468.949 234.291 469.307 232.925 469.307C231.419 469.307 230.252 468.82 229.423 467.846C228.601 466.867 228.189 465.481 228.189 463.687C228.189 461.848 228.67 460.404 229.633 459.356C230.601 458.302 231.926 457.776 233.608 457.776C234.141 457.776 234.658 457.815 235.16 457.895C235.663 457.974 236.159 458.094 236.651 458.253Z" fill="#EEEEEC"/>
<path d="M112.048 515.784C111.489 515.784 111.059 515.93 110.759 516.224C110.459 516.517 110.309 516.937 110.309 517.483C110.309 518.03 110.459 518.45 110.759 518.743C111.059 519.031 111.489 519.176 112.048 519.176C112.602 519.176 113.026 519.031 113.321 518.743C113.616 518.45 113.764 518.03 113.764 517.483C113.764 516.932 113.616 516.512 113.321 516.224C113.026 515.93 112.602 515.784 112.048 515.784ZM109.866 514.837C109.163 514.633 108.632 514.32 108.275 513.898C107.918 513.476 107.739 512.949 107.739 512.318C107.739 511.379 108.104 510.663 108.834 510.171C109.564 509.679 110.635 509.433 112.048 509.433C113.451 509.433 114.517 509.679 115.246 510.171C115.976 510.658 116.341 511.374 116.341 512.318C116.341 512.949 116.16 513.476 115.798 513.898C115.441 514.32 114.91 514.633 114.206 514.837C114.993 515.046 115.585 515.386 115.984 515.858C116.388 516.326 116.59 516.917 116.59 517.633C116.59 518.736 116.207 519.571 115.441 520.137C114.68 520.699 113.549 520.979 112.048 520.979C110.542 520.979 109.403 520.699 108.632 520.137C107.866 519.571 107.483 518.736 107.483 517.633C107.483 516.917 107.682 516.326 108.081 515.858C108.485 515.386 109.08 515.046 109.866 514.837ZM110.565 512.608C110.565 513.051 110.692 513.391 110.946 513.63C111.204 513.868 111.572 513.987 112.048 513.987C112.514 513.987 112.873 513.868 113.127 513.63C113.381 513.391 113.507 513.051 113.507 512.608C113.507 512.166 113.381 511.828 113.127 511.595C112.873 511.356 112.514 511.237 112.048 511.237C111.572 511.237 111.204 511.356 110.946 511.595C110.692 511.833 110.565 512.171 110.565 512.608ZM127.466 510.044V512.415H130.331V514.323H127.466V517.864C127.466 518.251 127.546 518.515 127.707 518.654C127.867 518.788 128.185 518.855 128.661 518.855H130.09V520.763H127.707C126.609 520.763 125.83 520.545 125.37 520.107C124.914 519.665 124.687 518.917 124.687 517.864V514.323H123.305V512.415H124.687V510.044H127.466ZM131.945 517.513V512.415H134.74V513.249C134.74 513.702 134.738 514.271 134.732 514.956C134.727 515.637 134.725 516.092 134.725 516.321C134.725 516.991 134.743 517.476 134.779 517.774C134.815 518.067 134.877 518.281 134.965 518.415C135.079 518.589 135.227 518.723 135.408 518.818C135.594 518.912 135.806 518.959 136.044 518.959C136.624 518.959 137.079 518.746 137.411 518.318C137.742 517.891 137.908 517.297 137.908 516.537V512.415H140.687V520.763H137.908V519.556C137.488 520.043 137.043 520.403 136.572 520.637C136.106 520.865 135.591 520.979 135.027 520.979C134.023 520.979 133.257 520.684 132.729 520.092C132.207 519.501 131.945 518.641 131.945 517.513ZM142.278 512.415H145.058L147.224 518.184L149.382 512.415H152.169L148.745 520.763H145.694L142.278 512.415Z" fill="#EEEEEC"/>
<path d="M24.5883 500.986H33.322V502.604L28.8037 512.115H25.8925L30.1701 503.096H24.5883V500.986ZM44.2217 510.907V515.29H41.4424V503.766H44.2217V504.989C44.6046 504.502 45.029 504.144 45.4948 503.915C45.9606 503.682 46.4963 503.565 47.1018 503.565C48.1732 503.565 49.053 503.975 49.7414 504.795C50.4297 505.61 50.7739 506.661 50.7739 507.948C50.7739 509.235 50.4297 510.289 49.7414 511.109C49.053 511.924 48.1732 512.331 47.1018 512.331C46.4963 512.331 45.9606 512.217 45.4948 511.988C45.029 511.755 44.6046 511.394 44.2217 510.907ZM46.0693 505.503C45.4741 505.503 45.0161 505.714 44.6952 506.137C44.3795 506.554 44.2217 507.158 44.2217 507.948C44.2217 508.738 44.3795 509.345 44.6952 509.767C45.0161 510.184 45.4741 510.393 46.0693 510.393C46.6645 510.393 47.1174 510.184 47.4279 509.767C47.7436 509.35 47.9015 508.743 47.9015 507.948C47.9015 507.153 47.7436 506.547 47.4279 506.129C47.1174 505.712 46.6645 505.503 46.0693 505.503ZM56.9224 505.503C56.3324 505.503 55.8796 505.712 55.5638 506.129C55.2533 506.547 55.098 507.153 55.098 507.948C55.098 508.743 55.2533 509.35 55.5638 509.767C55.8796 510.184 56.3324 510.393 56.9224 510.393C57.5176 510.393 57.9705 510.184 58.281 509.767C58.5967 509.35 58.7546 508.743 58.7546 507.948C58.7546 507.153 58.5967 506.547 58.281 506.129C57.9705 505.712 57.5176 505.503 56.9224 505.503ZM58.7546 510.907C58.3716 511.399 57.9498 511.76 57.4891 511.988C57.0285 512.217 56.4954 512.331 55.8899 512.331C54.8186 512.331 53.9387 511.924 53.2504 511.109C52.5621 510.289 52.2178 509.235 52.2179 507.948C52.2178 506.661 52.5621 505.613 53.2504 504.803C53.9387 503.988 54.8186 503.58 55.8899 503.58C56.4954 503.58 57.0285 503.694 57.4891 503.923C57.9498 504.152 58.3716 504.512 58.7546 505.004V503.766H61.5494V515.29H58.7546V510.907ZM70.6945 506.04C70.4513 505.931 70.208 505.851 69.9648 505.801C69.7267 505.747 69.486 505.719 69.2428 505.719C68.5286 505.719 67.9774 505.94 67.5892 506.383C67.2062 506.82 67.0147 507.449 67.0147 508.269V512.115H64.2355V503.766H67.0147V505.138C67.3718 504.591 67.7807 504.194 68.2413 503.945C68.7071 503.692 69.2635 503.565 69.9104 503.565C70.0036 503.565 70.1045 503.57 70.2132 503.58C70.3219 503.585 70.4797 503.6 70.6868 503.625L70.6945 506.04ZM78.8848 504.027V506.055C78.2896 505.816 77.7151 505.637 77.1614 505.518C76.6076 505.399 76.0849 505.339 75.5932 505.339C75.0653 505.339 74.6719 505.404 74.4132 505.533C74.1596 505.657 74.0328 505.851 74.0328 506.114C74.0328 506.328 74.1285 506.492 74.32 506.606C74.5166 506.721 74.866 506.805 75.368 506.86L75.8571 506.927C77.2804 507.101 78.2379 507.387 78.7296 507.784C79.2212 508.182 79.467 508.805 79.4671 509.655C79.467 510.545 79.1255 511.213 78.4423 511.66C77.7591 512.108 76.7396 512.331 75.3836 512.331C74.8091 512.331 74.2139 512.286 73.598 512.197C72.9873 512.112 72.3585 511.983 71.7115 511.809V509.782C72.2653 510.04 72.832 510.234 73.4117 510.363C73.9965 510.492 74.5891 510.557 75.1895 510.557C75.7329 510.557 76.1418 510.485 76.4161 510.341C76.6904 510.197 76.8275 509.983 76.8275 509.7C76.8275 509.461 76.7318 509.285 76.5403 509.171C76.354 509.051 75.9788 508.959 75.4146 508.895L74.9255 508.835C73.6886 508.686 72.8217 508.41 72.3248 508.008C71.828 507.605 71.5795 506.994 71.5795 506.174C71.5795 505.289 71.8953 504.634 72.5267 504.206C73.1581 503.779 74.1259 503.565 75.4301 503.565C75.9425 503.565 76.4808 503.602 77.0449 503.677C77.609 503.751 78.2224 503.868 78.8848 504.027Z" fill="#EEEEEC"/>
<path d="M177.836 503.8H180.538L181.997 509.555L183.465 503.8H185.786L187.245 509.495L188.713 503.8H191.414L189.124 512.149H186.089L184.621 506.409L183.162 512.149H180.126L177.836 503.8ZM195.498 507.877L192.361 503.8H195.304L197.082 506.275L198.883 503.8H201.825L198.689 507.862L201.98 512.149H199.038L197.082 509.51L195.148 512.149H192.206L195.498 507.877ZM202.407 503.8H205.186L207.523 509.465L209.511 503.8H212.29L208.633 512.939C208.266 513.868 207.836 514.516 207.345 514.884C206.858 515.257 206.214 515.443 205.412 515.443H203.805V513.692H204.674C205.145 513.692 205.487 513.619 205.699 513.475C205.916 513.331 206.084 513.073 206.203 512.7L206.281 512.469L202.407 503.8ZM213.493 503.8H221.078V505.663L216.498 510.24H221.078V512.149H213.299V510.285L217.879 505.708H213.493V503.8ZM228.958 511.903V509.845C229.434 510.059 229.889 510.22 230.324 510.33C230.759 510.434 231.188 510.486 231.613 510.486C232.503 510.486 233.196 510.25 233.693 509.778C234.19 509.301 234.483 508.595 234.571 507.661C234.219 507.91 233.843 508.096 233.445 508.22C233.046 508.344 232.614 508.407 232.148 508.407C230.963 508.407 230.006 508.076 229.276 507.415C228.551 506.749 228.189 505.875 228.189 504.791C228.189 503.594 228.593 502.635 229.4 501.914C230.213 501.193 231.3 500.833 232.661 500.833C234.172 500.833 235.342 501.323 236.17 502.302C236.998 503.281 237.412 504.665 237.412 506.454C237.412 508.292 236.928 509.738 235.96 510.792C234.992 511.84 233.665 512.365 231.978 512.365C231.434 512.365 230.914 512.325 230.417 512.245C229.92 512.171 229.434 512.057 228.958 511.903ZM232.645 506.543C233.168 506.543 233.561 506.382 233.825 506.059C234.089 505.731 234.221 505.241 234.221 504.59C234.221 503.944 234.089 503.457 233.825 503.129C233.561 502.801 233.168 502.637 232.645 502.637C232.123 502.637 231.729 502.801 231.465 503.129C231.201 503.457 231.069 503.944 231.069 504.59C231.069 505.241 231.201 505.731 231.465 506.059C231.729 506.382 232.123 506.543 232.645 506.543Z" fill="#EEEEEC"/>
<path d="M123.289 558.156C123.289 556.764 123.152 555.785 122.878 555.219C122.609 554.647 122.153 554.362 121.511 554.362C120.87 554.362 120.412 554.647 120.137 555.219C119.863 555.785 119.726 556.764 119.726 558.156C119.726 559.562 119.863 560.553 120.137 561.13C120.412 561.706 120.87 561.995 121.511 561.995C122.148 561.995 122.603 561.706 122.878 561.13C123.152 560.553 123.289 559.562 123.289 558.156ZM126.278 558.178C126.278 560.022 125.864 561.445 125.036 562.449C124.208 563.448 123.033 563.948 121.511 563.948C119.985 563.948 118.807 563.448 117.979 562.449C117.151 561.445 116.737 560.022 116.737 558.178C116.737 556.329 117.151 554.906 117.979 553.907C118.807 552.903 119.985 552.401 121.511 552.401C123.033 552.401 124.208 552.903 125.036 553.907C125.864 554.906 126.278 556.329 126.278 558.178ZM135.408 565.438H141.09V562.226H142.915V567.205H133.583V562.226H135.408V565.438Z" fill="#EEEEEC"/>
<path d="M32.2662 549.329L29.7043 550.618L32.2662 551.915L31.6762 552.966L29.091 551.595V554.159H27.7712V551.595L25.1783 552.966L24.5883 551.915L27.1812 550.618L24.5883 549.329L25.1783 548.278L27.7712 549.634V547.07H29.091V549.634L31.6762 548.278L32.2662 549.329ZM45.7045 548.829V552.735H49.7569V554.494H45.7045V558.4H43.8568V554.494H39.8043V552.735H43.8568V548.829H45.7045Z" fill="#EEEEEC"/>
<path d="M204.643 558.262V553.283L209.301 549.168L213.974 553.283V558.262H204.643ZM206.467 556.496H212.15V553.529L209.301 550.995L206.467 553.529V556.496ZM219.673 547.133H220.348L220.41 547.185V547.476C220.55 547.745 221.068 548.035 221.963 548.348C223.205 548.696 223.826 549.213 223.826 549.899C223.826 550.624 223.51 551.226 222.879 551.703H222.848L222.615 551.464C222.931 551.221 223.089 550.89 223.089 550.473C223.089 550.125 222.499 549.775 221.319 549.422C220.842 549.213 220.54 549.044 220.41 548.915V556.861C220.41 557.621 219.831 558.113 218.671 558.337H218.229C216.976 558.337 216.35 557.919 216.35 557.085C216.35 556.434 216.899 556.051 217.996 555.937H218.174C218.671 555.937 219.15 556.096 219.611 556.414V547.185L219.673 547.133ZM232.242 547.305L231.496 550.175H233.546L234.299 547.305H236.014L235.261 550.175H237.412V551.762H234.85L234.314 553.805H236.519V555.407H233.911L233.165 558.262H231.45L232.195 555.407H230.145L229.4 558.262H227.669L228.414 555.407H226.248V553.805H228.795L229.338 551.762H227.141V550.175H229.765L230.51 547.305H232.242ZM233.119 551.762H231.069L230.526 553.805H232.575L233.119 551.762Z" fill="#EEEEEC"/>
<defs>
<linearGradient id="paint0_linear_9_369" x1="131" y1="-0.00921594" x2="131" y2="592.535" gradientUnits="userSpaceOnUse">
<stop stop-color="#E2E3E0"/>
<stop offset="1" stop-color="#A6AAA1"/>
</linearGradient>
<linearGradient id="paint1_linear_9_369" x1="134.759" y1="26.5479" x2="134.759" y2="405.576" gradientUnits="userSpaceOnUse">
<stop stop-color="#3C3D3A"/>
<stop offset="1" stop-color="#787B75"/>
</linearGradient>
<linearGradient id="paint2_linear_9_369" x1="131" y1="319.042" x2="131" y2="392.266" gradientUnits="userSpaceOnUse">
<stop stop-color="#69695F"/>
<stop offset="1" stop-color="#EEEEEC"/>
</linearGradient>
<linearGradient id="paint3_linear_9_369" x1="131" y1="434.907" x2="131" y2="451.286" gradientUnits="userSpaceOnUse">
<stop/>
<stop offset="1" stop-color="#7F7F7F"/>
</linearGradient>
<linearGradient id="paint4_linear_9_369" x1="131" y1="481.625" x2="131" y2="498.004" gradientUnits="userSpaceOnUse">
<stop/>
<stop offset="1" stop-color="#7F7F7F"/>
</linearGradient>
<linearGradient id="paint5_linear_9_369" x1="131" y1="526.151" x2="131" y2="542.53" gradientUnits="userSpaceOnUse">
<stop/>
<stop offset="1" stop-color="#7F7F7F"/>
</linearGradient>
</defs>
</svg>
