<svg width="260" height="435" viewBox="0 0 260 435" fill="none" xmlns="http://www.w3.org/2000/svg">
<g clip-path="url(#clip0_20_40)">
<path d="M0 45C0 20.1472 20.1472 0 45 0H215C239.853 0 260 20.1472 260 45V450H0V45Z" fill="#555753"/>
<path d="M42 9.5H218C235.949 9.5 250.5 24.0507 250.5 42V470H259.5V42C259.5 19.0802 240.92 0.5 218 0.5H42C19.0802 0.5 0.5 19.0802 0.5 42V470H9.5V42C9.5 24.0507 24.0508 9.5 42 9.5Z" fill="#D9D9D9" stroke="#1E1E1E"/>
<rect x="100.5" y="18.5" width="60" height="5" rx="2.5" fill="black" stroke="#D9D9D9"/>
<rect x="15" y="32" width="230" height="400" rx="30" fill="#1E1E1E"/>
<rect x="27" y="336" width="206" height="86" rx="19" fill="#EEEEEC"/>
<line x1="25" y1="377.994" x2="235" y2="377.994" stroke="black"/>
<path d="M214 343.594H46C39.6432 343.594 34.5 348.806 34.5 355.224V402.776C34.5 409.194 39.6432 414.406 46 414.406H214C220.357 414.406 225.5 409.194 225.5 402.776V355.224C225.5 348.806 220.357 343.594 214 343.594ZM27.5 355.224C27.5 344.877 35.7882 336.5 46 336.5H214C224.212 336.5 232.5 344.877 232.5 355.224V402.776C232.5 413.123 224.212 421.5 214 421.5H46C35.7882 421.5 27.5 413.123 27.5 402.776V355.224Z" fill="#EEEEEC" stroke="#CACACA"/>
<rect x="90" y="346.118" width="80" height="65.7647" rx="19" fill="#EEEEEC"/>
<path d="M151 357.759H109C104.852 357.759 101.5 361.159 101.5 365.341V392.659C101.5 396.841 104.852 400.241 109 400.241H151C155.148 400.241 158.5 396.841 158.5 392.659V365.341C158.5 361.159 155.148 357.759 151 357.759ZM90.5 365.341C90.5 354.995 98.7882 346.618 109 346.618H151C161.212 346.618 169.5 354.995 169.5 365.341V392.659C169.5 403.005 161.212 411.382 151 411.382H109C98.7882 411.382 90.5 403.005 90.5 392.659V365.341Z" fill="#D3D3D3" stroke="black"/>
<line x1="44" y1="361.306" x2="76" y2="361.306" stroke="#729FCF" stroke-width="2"/>
<line x1="184" y1="361.306" x2="216" y2="361.306" stroke="#729FCF" stroke-width="2"/>
<path d="M44 398.729L55.1765 395.196C58.3156 394.203 61.6844 394.203 64.8235 395.196L76 398.729" stroke="#4E9A06" stroke-width="2"/>
<path d="M184 398.729L195.177 395.196C198.316 394.203 201.684 394.203 204.823 395.196L216 398.729" stroke="#A40000" stroke-width="2"/>
<line x1="195" y1="400.765" x2="205" y2="400.765" stroke="#A40000" stroke-width="2"/>
</g>
<defs>
<clipPath id="clip0_20_40">
<rect width="260" height="435" fill="white"/>
</clipPath>
</defs>
</svg>
